<?xml version="1.0" encoding="UTF-8" standalone="no"?>
<!DOCTYPE svg PUBLIC "-//W3C//DTD SVG 1.1//EN" "http://www.w3.org/Graphics/SVG/1.1/DTD/svg11.dtd">
<svg width="100%" height="100%" viewBox="0 0 3508 2481" version="1.1" xmlns="http://www.w3.org/2000/svg" xmlns:xlink="http://www.w3.org/1999/xlink" xml:space="preserve" xmlns:serif="http://www.serif.com/" style="fill-rule:evenodd;clip-rule:evenodd;stroke-linecap:round;stroke-linejoin:round;stroke-miterlimit:1.5;">
    <g id="LANDING-" serif:id="LANDING " transform="matrix(1,0,0,1,18.0618,223.145)">
        <g transform="matrix(1,0,0,1,-14.1348,44.8617)">
            <path d="M2323.86,189.677L2323.86,307.15C2323.86,339.567 2297.54,365.886 2265.12,365.886L1290.02,365.886C1257.6,365.886 1231.28,339.567 1231.28,307.15L1231.28,189.677C1231.28,157.259 1257.6,130.941 1290.02,130.941L2265.12,130.941C2297.54,130.941 2323.86,157.259 2323.86,189.677Z" style="fill:rgb(115,253,255);stroke:black;stroke-width:4.17px;"/>
        </g>
        <g transform="matrix(0.92515,0,0,1,40.8012,27.3893)">
            <text x="1293.68px" y="267.086px" style="font-family:'ArialMT', 'Arial', sans-serif;font-size:33.333px;">• <tspan x="1368.68px " y="267.086px ">I</tspan>ntro animation/ visual - optional skip intro</text>
            <g transform="matrix(33.3333,0,0,33.3333,2395.75,301.51)">
            </g>
            <text x="1293.68px" y="301.51px" style="font-family:'ArialMT', 'Arial', sans-serif;font-size:33.333px;">• <tspan x="1368.68px 1392.75px 1410.64px 1431.04px 1440.3px " y="301.51px 301.51px 301.51px 301.51px 301.51px ">CTA b</tspan>uttons - explore the diary<tspan x="1823.22px 1832.48px " y="301.51px 301.51px ">, </tspan>watch the prologue, view magic piece</text>
        </g>
        <g transform="matrix(1,0,0,1,2.14504,18.8331)">
            <g transform="matrix(50,0,0,50,1927.37,216.166)">
            </g>
            <text x="1547.73px" y="216.166px" style="font-family:'Arial-BoldMT', 'Arial', sans-serif;font-weight:700;font-size:50px;">LANDING P<tspan x="1819.02px 1855.13px " y="216.166px 216.166px ">AG</tspan>E</text>
        </g>
    </g>
    <g id="ABOUT-PAGE" serif:id="ABOUT PAGE" transform="matrix(0.725596,0,0,1.03955,279.684,210.303)">
        <g transform="matrix(1,0,0,1,2419.36,7.32355)">
            <path d="M796.73,651.665L796.73,770.858C796.73,803.751 758.471,830.455 711.346,830.455L177.196,830.455C130.071,830.455 91.812,803.751 91.812,770.858L91.812,651.665C91.812,618.772 130.071,592.068 177.196,592.068L711.346,592.068C758.471,592.068 796.73,618.772 796.73,651.665Z" style="fill:rgb(215,131,255);stroke:black;stroke-width:4.65px;"/>
        </g>
        <g transform="matrix(0.794303,0,0,0.554418,910.788,332.859)">
            <text x="2116.99px" y="696.502px" style="font-family:'Helvetica';font-size:58.333px;fill:rgb(14,14,14);"><tspan x="2116.99px 2137.41px 2170.74px " y="696.502px 696.502px 696.502px ">• A</tspan>rtist bio + project info</text>
            <g transform="matrix(58.3333,0,0,58.3333,2699.19,825.252)">
            </g>
            <text x="2116.99px" y="825.252px" style="font-family:'Helvetica';font-size:58.333px;fill:rgb(14,14,14);"><tspan x="2116.99px 2137.41px 2170.74px " y="825.252px 825.252px 825.252px ">• C</tspan>ontact email or link</text>
        </g>
        <g transform="matrix(1,0,0,1,1103.17,448.353)">
            <g transform="matrix(1.43268,0,0,1,-669.673,0)">
                <g transform="matrix(48.0979,0,0,48.0979,1865.91,216.166)">
                </g>
                <text x="1547.73px" y="216.166px" style="font-family:'Arial-BoldMT', 'Arial', sans-serif;font-weight:700;font-size:48.098px;">ABOUT P<tspan x="1761.68px 1796.42px " y="216.166px 216.166px ">AG</tspan>E</text>
            </g>
        </g>
    </g>
    <g id="SHOPS-PAGE" serif:id="SHOPS PAGE" transform="matrix(0.725596,0,0,1.03955,857.219,199.618)">
        <g transform="matrix(1,0,0,1,2419.36,7.32355)">
            <path d="M796.73,651.665L796.73,770.858C796.73,803.751 758.471,830.455 711.346,830.455L177.196,830.455C130.071,830.455 91.812,803.751 91.812,770.858L91.812,651.665C91.812,618.772 130.071,592.068 177.196,592.068L711.346,592.068C758.471,592.068 796.73,618.772 796.73,651.665Z" style="fill:rgb(254,173,0);stroke:black;stroke-width:4.65px;"/>
        </g>
        <g transform="matrix(0.613047,0,0,0.427902,934.181,446.75)">
            <text x="2699.9px" y="711.918px" style="font-family:'Helvetica';font-size:58.333px;fill:rgb(14,14,14);">Included for visual completeness</text>
            <text x="2700.31px" y="840.668px" style="font-family:'Helvetica';font-size:58.333px;fill:rgb(14,14,14);"><tspan x="2700.31px 2720.73px 2754.07px " y="840.668px 840.668px 840.668px ">• C</tspan>learly marked as</text>
            <g transform="matrix(58.3333,0,0,58.3333,3457.6,840.668)">
            </g>
            <text x="3240.33px" y="840.668px" style="font-family:'Helvetica-Oblique', 'Helvetica';font-style:italic;font-size:58.333px;fill:rgb(14,14,14);">deferred</text>
        </g>
        <g transform="matrix(1,0,0,1,1083.32,438.322)">
            <g transform="matrix(1.43268,0,0,1,-670.431,0)">
                <text x="1549.48px" y="216.166px" style="font-family:'Arial-BoldMT', 'Arial', sans-serif;font-weight:700;font-size:48.098px;">SHOPS P<tspan x="1760.83px 1795.56px " y="216.166px 216.166px ">AG</tspan>E</text>
            </g>
            <g transform="matrix(1.43268,0,0,1,-669.673,0)">
                <g transform="matrix(48.0979,0,0,48.0979,1865.75,265.837)">
                </g>
                <text x="1547.73px" y="265.837px" style="font-family:'Arial-BoldMT', 'Arial', sans-serif;font-weight:700;font-size:48.098px;">(placeholder))</text>
            </g>
        </g>
    </g>
    <g id="TUTORIALS-PAGE" serif:id="TUTORIALS PAGE" transform="matrix(0.725596,0,0,1.58669,257.402,-105.027)">
        <g transform="matrix(1,0,0,1.17201,867.644,-102.036)">
            <path d="M796.73,651.665L796.73,770.858C796.73,803.751 728.289,830.455 643.99,830.455L244.552,830.455C160.253,830.455 91.812,803.751 91.812,770.858L91.812,651.665C91.812,618.772 160.253,592.068 244.552,592.068L643.99,592.068C728.289,592.068 796.73,618.772 796.73,651.665Z" style="fill:rgb(80,205,219);stroke:black;stroke-width:2.95px;"/>
        </g>
        <g transform="matrix(1,0,0,1,-531.502,430.194)">
            <g transform="matrix(2.18674,0,0,1,-1836.75,0)">
                <g transform="matrix(31.5122,0,0,31.5122,1824.77,216.166)">
                </g>
                <text x="1547.73px" y="216.166px" style="font-family:'Arial-BoldMT', 'Arial', sans-serif;font-weight:700;font-size:31.512px;">TUT<tspan x="1608.73px 1633.24px " y="216.166px 216.166px ">OR</tspan>IALS P<tspan x="1756.48px 1779.24px " y="216.166px 216.166px ">AG</tspan>E</text>
            </g>
        </g>
        <g transform="matrix(0.611168,0,0,0.279489,362.886,488.154)">
            <text x="1104.56px" y="724.356px" style="font-family:'Helvetica-Bold', 'Helvetica';font-weight:700;font-size:62.5px;fill:rgb(14,14,14);">T<tspan x="1138.13px 1176.31px " y="724.356px 724.356px ">ut</tspan>orials / Methodology Page</text>
            <text x="1087.61px" y="853.106px" style="font-family:'Helvetica';font-size:58.333px;fill:rgb(14,14,14);"><tspan x="1087.61px 1108.03px 1141.37px " y="853.106px 853.106px 853.106px ">• E</tspan>mbedded youtube walkthroughs</text>
            <text x="1087.61px" y="981.856px" style="font-family:'Helvetica';font-size:58.333px;fill:rgb(14,14,14);"><tspan x="1087.61px 1108.03px 1141.37px 1195.4px 1214.82px " y="981.856px 981.856px 981.856px 981.856px 981.856px ">• Wri</tspan>tten guides</text>
            <text x="1087.61px" y="1110.61px" style="font-family:'Helvetica';font-size:58.333px;fill:rgb(14,14,14);"><tspan x="1087.61px 1108.03px 1141.37px " y="1110.61px 1110.61px 1110.61px ">• i</tspan>OS Shortcuts + templates</text>
            <g transform="matrix(52.9587,0,0,52.9587,1626.21,1232.1)">
            </g>
            <text x="1087.2px" y="1232.1px" style="font-family:'Helvetica';font-size:52.959px;fill:rgb(14,14,14);">• <tspan x="1162.2px " y="1232.1px ">S</tspan>UBST<tspan x="1334.86px 1370.18px " y="1232.1px 1232.1px ">AC</tspan>K articles</text>
        </g>
    </g>
    <g id="MUSIC-PAGE" serif:id="MUSIC PAGE" transform="matrix(0.725596,0,0,1.03955,267.646,216.295)">
        <g transform="matrix(1,0,0,1,1634.84,6.6192)">
            <path d="M796.73,651.665L796.73,770.858C796.73,803.751 758.471,830.455 711.346,830.455L177.196,830.455C130.071,830.455 91.812,803.751 91.812,770.858L91.812,651.665C91.812,618.772 130.071,592.068 177.196,592.068L711.346,592.068C758.471,592.068 796.73,618.772 796.73,651.665Z" style="fill:rgb(104,193,81);stroke:black;stroke-width:4.65px;"/>
        </g>
        <g transform="matrix(0.554857,0,0,0.387286,936.506,458.797)">
            <text x="1574.8px" y="701.193px" style="font-family:'Helvetica';font-size:58.333px;fill:rgb(14,14,14);">• <tspan x="1649.8px " y="701.193px ">E</tspan>mbedded <tspan x="1947.14px 1980.69px 2013.13px 2045.58px 2079.07px 2111.51px " y="701.193px 701.193px 701.193px 701.193px 701.193px 701.193px ">YouTub</tspan>e / Spotify links</text>
            <text x="1574.8px" y="829.943px" style="font-family:'Helvetica';font-size:58.333px;fill:rgb(14,14,14);">• <tspan x="1649.8px " y="829.943px ">s</tspan>hort bio and llinks</text>
        </g>
        <g transform="matrix(1,0,0,1,302.125,447.158)">
            <g transform="matrix(1.43268,0,0,1,-669.673,0)">
                <g transform="matrix(48.0979,0,0,48.0979,1849.89,216.166)">
                </g>
                <text x="1547.73px" y="216.166px" style="font-family:'Arial-BoldMT', 'Arial', sans-serif;font-weight:700;font-size:48.098px;">MUSIC P<tspan x="1745.66px 1780.4px " y="216.166px 216.166px ">AG</tspan>E</text>
            </g>
        </g>
    </g>
    <g id="GALLERY" transform="matrix(1,0,0,1,12.6912,269.039)">
        <g transform="matrix(1.04889,0,0,2.24053,-4.83304,-764.253)">
            <path d="M796.73,651.665L796.73,770.858C796.73,803.751 739.686,830.455 669.425,830.455L219.117,830.455C148.856,830.455 91.812,803.751 91.812,770.858L91.812,651.665C91.812,618.772 148.856,592.068 219.117,592.068L669.425,592.068C739.686,592.068 796.73,618.772 796.73,651.665Z" style="fill:rgb(240,236,147);stroke:black;stroke-width:2.38px;"/>
        </g>
        <g transform="matrix(1,0,0,1,-1434.88,445.544)">
            <g transform="matrix(50,0,0,50,2235.77,216.166)">
            </g>
            <text x="1547.73px" y="216.166px" style="font-family:'Arial-BoldMT', 'Arial', sans-serif;font-weight:700;font-size:50px;">GALLER<tspan x="1751.42px 1783.87px 1797.76px " y="216.166px 216.166px 216.166px ">Y E</tspan>XHIBITION P<tspan x="2127.42px 2163.53px " y="216.166px 216.166px ">AG</tspan>E</text>
        </g>
        <g transform="matrix(0.416526,0,0,0.416526,121.502,402.102)">
            <text x="151.898px" y="724.188px" style="font-family:'Helvetica-Bold', 'Helvetica';font-weight:700;font-size:58.333px;fill:rgb(14,14,14);">Act Sections:</text>
            <text x="235.642px" y="852.938px" style="font-family:'Helvetica';font-size:58.333px;fill:rgb(14,14,14);"><tspan x="235.642px 256.064px 289.398px " y="852.938px 852.938px 852.938px ">• P</tspan>requel</text>
            <text x="235.642px" y="981.688px" style="font-family:'Helvetica';font-size:58.333px;fill:rgb(14,14,14);"><tspan x="235.642px 256.064px 289.398px " y="981.688px 981.688px 981.688px ">• I</tspan>nitiation</text>
            <text x="235.642px" y="1110.44px" style="font-family:'Helvetica';font-size:58.333px;fill:rgb(14,14,14);"><tspan x="235.642px 256.064px 289.398px " y="1110.44px 1110.44px 1110.44px ">• D</tspan>evotion</text>
            <text x="235.642px" y="1239.19px" style="font-family:'Helvetica';font-size:58.333px;fill:rgb(14,14,14);"><tspan x="235.642px 256.064px 289.398px 322.894px 342.319px " y="1239.19px 1239.19px 1239.19px 1239.19px 1239.19px ">• Tra</tspan>nsformation</text>
            <text x="152.308px" y="1367.94px" style="font-family:'Helvetica';font-size:58.333px;fill:rgb(14,14,14);"><tspan x="152.308px 172.731px 206.064px " y="1367.94px 1367.94px 1367.94px ">• F</tspan>eatured Piece (Magic Page)</text>
            <text x="152.308px" y="1496.69px" style="font-family:'Helvetica';font-size:58.333px;fill:rgb(14,14,14);"><tspan x="152.308px 172.731px 206.064px " y="1496.69px 1496.69px 1496.69px ">• A</tspan>rtwork <tspan x="418.947px 454.579px " y="1496.69px 1496.69px ">Th</tspan>umbnails (x50)</text>
            <text x="235.642px" y="1627.72px" style="font-family:'Helvetica';font-size:58.333px;fill:rgb(14,14,14);"><tspan x="235.642px 256.064px 289.398px " y="1627.72px 1627.72px 1627.72px ">• E</tspan>ach links to</text>
            <g transform="matrix(58.3333,0,0,58.3333,1156.71,1627.72)">
            </g>
            <text x="636.321px" y="1627.72px" style="font-family:'HelveticaNeue-Bold', 'Helvetica Neue';font-weight:700;font-size:58.333px;fill:rgb(14,14,14);">Piece Detail Modal</text>
        </g>
    </g>
    <g id="_50-INDIVIDUAL-PIECE" serif:id="50 INDIVIDUAL PIECE" transform="matrix(1,0,0,1,5.22361,377.404)">
        <g transform="matrix(1,0,0,1.24169,0,-312.502)">
            <path d="M857.495,1430.68L857.495,1706.09C857.495,1782.09 780.878,1843.79 686.508,1843.79L282.497,1843.79C188.127,1843.79 111.51,1782.09 111.51,1706.09L111.51,1430.68C111.51,1354.68 188.127,1292.98 282.497,1292.98L686.508,1292.98C780.878,1292.98 857.495,1354.68 857.495,1430.68Z" style="fill:rgb(255,252,121);"/>
            <clipPath id="_clip1">
                <path d="M857.495,1430.68L857.495,1706.09C857.495,1782.09 780.878,1843.79 686.508,1843.79L282.497,1843.79C188.127,1843.79 111.51,1782.09 111.51,1706.09L111.51,1430.68C111.51,1354.68 188.127,1292.98 282.497,1292.98L686.508,1292.98C780.878,1292.98 857.495,1354.68 857.495,1430.68Z"/>
            </clipPath>
            <g clip-path="url(#_clip1)">
                <g transform="matrix(1,0,0,1,-1406.38,1193.99)">
                    <g transform="matrix(50,0,0,50,2226.47,216.166)">
                    </g>
                    <text x="1547.73px" y="216.166px" style="font-family:'Arial-BoldMT', 'Arial', sans-serif;font-weight:700;font-size:50px;">PIECE DET<tspan x="1807.96px 1844.07px 1857.96px 1887.6px 1901.49px " y="216.166px 216.166px 216.166px 216.166px 216.166px ">AIL M</tspan>ODAL/VIEW</text>
                </g>
            </g>
            <path d="M857.495,1430.68L857.495,1706.09C857.495,1782.09 780.878,1843.79 686.508,1843.79L282.497,1843.79C188.127,1843.79 111.51,1782.09 111.51,1706.09L111.51,1430.68C111.51,1354.68 188.127,1292.98 282.497,1292.98L686.508,1292.98C780.878,1292.98 857.495,1354.68 857.495,1430.68Z" style="fill:none;stroke:black;stroke-width:3.7px;"/>
        </g>
        <g transform="matrix(0.546674,0,0,0.518106,62.9324,745.265)">
            <text x="172.868px" y="1489.1px" style="font-family:'Helvetica';font-size:58.333px;fill:rgb(14,14,14);">Zoomable full artwork - shared template for all</text>
            <text x="172.868px" y="1567.85px" style="font-family:'Helvetica';font-size:58.333px;fill:rgb(14,14,14);">50 artworks</text>
            <text x="173.279px" y="1696.6px" style="font-family:'Helvetica';font-size:58.333px;fill:rgb(14,14,14);"><tspan x="173.279px 193.701px 227.034px " y="1696.6px 1696.6px 1696.6px ">• I</tspan>nteractive Hotspots:</text>
            <text x="256.612px" y="1825.35px" style="font-family:'Helvetica';font-size:58.333px;fill:rgb(14,14,14);"><tspan x="256.612px " y="1825.35px ">•</tspan></text>
            <text x="310.368px" y="1825.35px" style="font-family:'AppleColorEmoji', 'Apple Color Emoji';font-size:58.333px;fill:rgb(14,14,14);">🔊</text>
            <text x="381.718px" y="1825.35px" style="font-family:'Helvetica';font-size:58.333px;fill:rgb(14,14,14);"><tspan x="381.718px 420.626px " y="1825.35px 1825.35px ">Au</tspan>dio narration</text>
            <text x="256.612px" y="1954.1px" style="font-family:'Helvetica';font-size:58.333px;fill:rgb(14,14,14);"><tspan x="256.612px " y="1954.1px ">•</tspan></text>
            <text x="310.368px" y="1954.1px" style="font-family:'AppleColorEmoji', 'Apple Color Emoji';font-size:58.333px;fill:rgb(14,14,14);">🎞</text>
            <text x="384.908px" y="1954.1px" style="font-family:'Helvetica';font-size:58.333px;fill:rgb(14,14,14);">Optional rollover media</text>
            <text x="256.612px" y="2082.85px" style="font-family:'Helvetica';font-size:58.333px;fill:rgb(14,14,14);"><tspan x="256.612px " y="2082.85px ">•</tspan></text>
            <text x="310.368px" y="2082.85px" style="font-family:'AppleColorEmoji', 'Apple Color Emoji';font-size:58.333px;fill:rgb(14,14,14);">🔗</text>
            <text x="384.908px" y="2082.85px" style="font-family:'Helvetica';font-size:58.333px;fill:rgb(14,14,14);">Optional external/internal link</text>
            <text x="256.612px" y="2211.6px" style="font-family:'Helvetica';font-size:58.333px;fill:rgb(14,14,14);"><tspan x="256.612px " y="2211.6px ">•</tspan></text>
            <text x="310.368px" y="2211.6px" style="font-family:'AppleColorEmoji', 'Apple Color Emoji';font-size:58.333px;fill:rgb(14,14,14);">🔒</text>
            <g transform="matrix(58.3333,0,0,58.3333,819.389,2211.6)">
            </g>
            <text x="384.908px" y="2211.6px" style="font-family:'Helvetica';font-size:58.333px;fill:rgb(14,14,14);">Gated hotspot(s)</text>
        </g>
    </g>
    <g id="EMAIL-GATING" serif:id="EMAIL GATING" transform="matrix(1,0,0,1,18.0618,223.145)">
        <g transform="matrix(1.25947,0,0,1.35753,-217.889,-403.442)">
            <path d="M1394.43,1213.61L1394.43,1383.99C1394.43,1431 1353.28,1469.17 1302.61,1469.17L931.578,1469.17C880.902,1469.17 839.758,1431 839.758,1383.99L839.758,1213.61C839.758,1166.6 880.902,1128.42 931.578,1128.42L1302.61,1128.42C1353.28,1128.42 1394.43,1166.6 1394.43,1213.61Z" style="fill:rgb(194,215,212);stroke:black;stroke-width:3.18px;"/>
        </g>
        <g transform="matrix(0.40127,0,0,0.40127,507.081,775.675)">
            <text x="938.814px" y="1310.97px" style="font-family:'Helvetica';font-size:58.333px;fill:rgb(14,14,14);">T<tspan x="972.311px 991.736px " y="1310.97px 1310.97px ">ri</tspan>ggered on gated content</text>
            <text x="939.225px" y="1439.72px" style="font-family:'Helvetica';font-size:58.333px;fill:rgb(14,14,14);"><tspan x="939.225px 959.648px 992.981px " y="1439.72px 1439.72px 1439.72px ">• C</tspan>aptures email</text>
            <g transform="matrix(58.3333,0,0,58.3333,1765.73,1568.47)">
            </g>
            <g transform="matrix(58.3333,0,0,58.3333,1781.93,1568.47)">
            </g>
            <text x="939.225px" y="1568.47px" style="font-family:'Helvetica';font-size:58.333px;fill:rgb(14,14,14);"><tspan x="939.225px 959.648px 992.981px 1026.48px 1045.9px " y="1568.47px 1568.47px 1568.47px 1568.47px 1568.47px ">• Tri</tspan>ggers backend submission ﬂow</text>
            <text x="992.981px" y="1647.22px" style="font-family:'Helvetica';font-size:58.333px;fill:rgb(14,14,14);">(note: only shown here as a modal)</text>
            <text x="939.225px" y="1775.97px" style="font-family:'Helvetica';font-size:58.333px;fill:rgb(14,14,14);"><tspan x="939.225px 959.648px 992.981px " y="1775.97px 1775.97px 1775.97px ">• O</tspan>n success: unlocks access (via localStorage or similar</text>
            <text x="938.814px" y="1904.72px" style="font-family:'Helvetica';font-size:58.333px;fill:rgb(14,14,14);">• <tspan x="1013.81px " y="1904.72px ">o</tspan>nly activated on restricted pieces or areas</text>
            <g transform="matrix(58.3333,0,0,58.3333,958.24,2033.47)">
            </g>
            <text x="938.814px" y="2033.47px" style="font-family:'Helvetica';font-size:58.333px;fill:rgb(14,14,14);">)</text>
        </g>
        <g>
            <text x="928.409px" y="1192.15px" style="font-family:'Arial-BoldMT', 'Arial', sans-serif;font-weight:700;font-size:50px;">EMAIL<tspan x="1083.05px 1096.94px 1135.83px 1168.23px 1198.77px " y="1192.15px 1192.15px 1192.15px 1192.15px 1192.15px "> GATI</tspan>NG MODAL</text>
            <text x="1091.32px" y="1243.79px" style="font-family:'Arial-BoldMT', 'Arial', sans-serif;font-weight:700;font-size:50px;">(UI Layer)</text>
        </g>
    </g>
    <g id="connecting-lines" serif:id="connecting lines" transform="matrix(1,0,0,1,18.0618,223.145)">
        <g transform="matrix(1.04045,-0.0120159,-0.0120159,1.00357,-46.2618,13.744)">
            <path d="M1265.76,410.444L634.587,597.959" style="fill:none;stroke:black;stroke-width:4.12px;"/>
        </g>
        <path d="M1441.34,412.037L1148.42,608.764" style="fill:none;stroke:black;stroke-width:4.17px;"/>
        <path d="M1740.28,412.445L1746.49,607.307" style="fill:none;stroke:black;stroke-width:4.17px;"/>
        <path d="M2196.52,411.821L2335.18,607.003" style="fill:none;stroke:black;stroke-width:4.17px;"/>
        <path d="M2295.66,391.667L2933.15,598.639" style="fill:none;stroke:black;stroke-width:4.17px;"/>
        <path d="M545.192,1143.45L838.326,1282.94" style="fill:none;stroke:black;stroke-width:4.17px;"/>
        <path d="M361.871,1142.97L338.148,1446.94" style="fill:none;stroke:black;stroke-width:4.17px;"/>
        <g transform="matrix(1.01608,-0.00489181,-0.00489181,1.00149,-6.87931,2.09254)">
            <path d="M838.27,1349.55L533.906,1442.13" style="fill:none;stroke:black;stroke-width:4.15px;"/>
        </g>
    </g>
    <g id="Navigation-bar" serif:id="Navigation bar" transform="matrix(1,0,0,1,831.517,2085.39)">
        <g transform="matrix(0.573357,0,0,2.83179,673.506,-105.909)">
            <path d="M3224.33,78.587L3224.33,120.127C3224.33,131.591 3178.36,140.897 3121.75,140.897L519.649,140.897C463.032,140.897 417.066,131.591 417.066,120.127L417.066,78.587C417.066,67.124 463.032,57.817 519.649,57.817L3121.75,57.817C3178.36,57.817 3224.33,67.124 3224.33,78.587Z" style="fill:rgb(193,240,185);stroke:black;stroke-width:2.04px;"/>
        </g>
        <g transform="matrix(1.47202,0,0,1.47202,358.116,-17.9988)">
            <g transform="matrix(26.0237,0,0,26.0237,1346.1,92.7541)">
            </g>
            <text x="469.555px" y="92.754px" style="font-family:'ArialMT', 'Arial', sans-serif;font-size:26.024px;">Global Navigation :  Home    Exhibition    <tspan x="943.523px 958.453px 972.926px " y="92.754px 92.754px 92.754px ">Tut</tspan>orials      Music     <tspan x="1188.4px 1205.76px " y="92.754px 92.754px ">Ab</tspan>out    Shop</text>
        </g>
        <g transform="matrix(0.736366,0,0,0.736366,115.839,-1279.71)">
            <text x="1360.03px" y="1990.92px" style="font-family:'AppleSymbols', 'Apple Symbols';font-size:54.167px;">☰</text>
            <text x="1419.75px" y="1990.92px" style="font-family:'Helvetica';font-size:54.167px;"><tspan x="1419.75px 1454.92px 1482.01px " y="1990.92px 1990.92px 1990.92px ">Ava</tspan>ilable on all pages (except Landing, fades in after interaction)</text>
            <text x="1360.03px" y="2049.61px" style="font-family:'AppleSymbols', 'Apple Symbols';font-size:54.167px;">☰</text>
            <g transform="matrix(54.1667,0,0,54.1667,2742.92,2049.61)">
            </g>
            <text x="1422.71px" y="2049.61px" style="font-family:'Helvetica';font-size:54.167px;">Hamburger style menu post-landing (mobile + desktop)</text>
        </g>
    </g>
    <g transform="matrix(1,0,0,1,-29.9667,56.0085)">
        <g transform="matrix(125,0,0,125,1672.98,89.4775)">
        </g>
        <text x="70.866px" y="89.478px" style="font-family:'Arial-BoldMT', 'Arial', sans-serif;font-weight:700;font-size:125px;">SITE MAP<tspan x="658.94px 693.669px " y="89.478px 89.478px "> -</tspan> DIAR<tspan x="1070.93px 1152.04px 1186.77px " y="89.478px 89.478px 89.478px ">Y O</tspan>F DEJI</text>
        <rect x="70.866" y="102.722" width="1602.11" height="13.123"/>
    </g>
    <g id="PIECE-DETAIL-CONTROLS" serif:id="PIECE DETAIL CONTROLS" transform="matrix(1.00522,0,0,1,13.2818,223.145)">
        <path d="M1556.31,1884.18L1556.31,2111.22C1556.31,2173.88 1505.7,2224.75 1443.37,2224.75L1027.95,2224.75C965.622,2224.75 915.019,2173.88 915.019,2111.22L915.019,1884.18C915.019,1821.52 965.622,1770.65 1027.95,1770.65L1443.37,1770.65C1505.7,1770.65 1556.31,1821.52 1556.31,1884.18Z" style="fill:rgb(194,215,212);stroke:black;stroke-width:4.16px;"/>
        <g transform="matrix(1,0,0,1,32.2556,656.718)">
            <text x="956.559px" y="1192.15px" style="font-family:'Arial-BoldMT', 'Arial', sans-serif;font-weight:700;font-size:50px;">Piece Detail Controls</text>
            <text x="1091.32px" y="1243.79px" style="font-family:'Arial-BoldMT', 'Arial', sans-serif;font-weight:700;font-size:50px;">(UI Layer)</text>
        </g>
        <g transform="matrix(0.411307,0,0,0.413455,952.848,1911.4)">
            <text x="0px" y="35.815px" style="font-family:'ArialMT', 'Arial', sans-serif;font-size:50px;">• <tspan x="75px " y="35.815px ">A</tspan>udio player</text>
            <text x="0px" y="137.451px" style="font-family:'ArialMT', 'Arial', sans-serif;font-size:50px;">• <tspan x="75px " y="137.451px ">L</tspan>istening modes: sequential / curated / free explore</text>
            <text x="0px" y="239.087px" style="font-family:'ArialMT', 'Arial', sans-serif;font-size:50px;">• <tspan x="75px " y="239.087px ">P</tspan>iece-level navigation</text>
            <text x="0px" y="340.723px" style="font-family:'ArialMT', 'Arial', sans-serif;font-size:50px;">• <tspan x="75px " y="340.723px ">H</tspan>amburger menu with:</text>
            <text x="0px" y="442.358px" style="font-family:'ArialMT', 'Arial', sans-serif;font-size:50px;">• <tspan x="75px 86.133px 119.482px " y="442.358px 442.358px 442.358px "> Ab</tspan>out this piece</text>
            <text x="0px" y="543.994px" style="font-family:'ArialMT', 'Arial', sans-serif;font-size:50px;">• <tspan x="75px " y="543.994px "> </tspan> Start journey mode</text>
            <g transform="matrix(50,0,0,50,647.534,645.63)">
            </g>
            <text x="0px" y="645.63px" style="font-family:'ArialMT', 'Arial', sans-serif;font-size:50px;">• <tspan x="75px " y="645.63px "> </tspan> Silent / interactive toggle</text>
        </g>
    </g>
    <g transform="matrix(1,0,0,1,26.6348,150.477)">
        <path d="M844.697,1899.61L914.034,1914.12" style="fill:none;stroke:black;stroke-width:4.17px;"/>
    </g>
    <g transform="matrix(1,0,0,1,-3071.65,80.3134)">
        <text x="3127.73px" y="158.287px" style="font-family:'Helvetica-Bold', 'Helvetica';font-weight:700;font-size:50px;">V<tspan x="3158.35px 3186.16px " y="158.287px 158.287px ">er</tspan>sion:</text>
        <text x="3338.94px" y="158.287px" style="font-family:'Helvetica';font-size:50px;">v1</text>
        <text x="3391.75px" y="158.287px" style="font-family:'Helvetica';font-size:50px;fill:rgb(20,0,196);">.0</text>
        <text x="3127.73px" y="208.287px" style="font-family:'Helvetica-Bold', 'Helvetica';font-weight:700;font-size:50px;">Created by</text>
        <text x="3386.16px" y="208.287px" style="font-family:'Helvetica';font-size:50px;">: Deji</text>
        <text x="3127.73px" y="258.287px" style="font-family:'Helvetica-Bold', 'Helvetica';font-weight:700;font-size:50px;">Last Updated:</text>
        <text x="3474.97px" y="258.287px" style="font-family:'Helvetica';font-size:50px;fill:rgb(20,0,196);">2025</text>
        <text x="3586.2px" y="258.287px" style="font-family:'Helvetica';font-size:50px;">-</text>
        <text x="3602.85px" y="258.287px" style="font-family:'Helvetica';font-size:50px;fill:rgb(20,0,196);">07</text>
        <text x="3658.47px" y="258.287px" style="font-family:'Helvetica';font-size:50px;">-</text>
        <text x="3675.12px" y="258.287px" style="font-family:'Helvetica';font-size:50px;fill:rgb(20,0,196);">16</text>
        <text x="3127.73px" y="308.287px" style="font-family:'Helvetica-Bold', 'Helvetica';font-weight:700;font-size:50px;">Purpose:</text>
        <text x="3359.35px" y="308.287px" style="font-family:'Helvetica';font-size:50px;"><tspan x="3359.35px " y="308.287px ">M</tspan>aps <tspan x="3496.53px " y="308.287px ">t</tspan>he <tspan x="3580.95px " y="308.287px ">c</tspan>ore <tspan x="3693.13px " y="308.287px ">s</tspan>tructure <tspan x="3902.55px " y="308.287px ">o</tspan>f <tspan x="3959.16px " y="308.287px ">t</tspan>he <tspan x="4043.59px " y="308.287px ">w</tspan>ebsite</text>
        <text x="3127.73px" y="358.287px" style="font-family:'Helvetica';font-size:50px;">— <tspan x="3191.96px " y="358.287px ">i</tspan>ncluding <tspan x="3403.56px " y="358.287px ">g</tspan>allery <tspan x="3565.08px " y="358.287px ">e</tspan>ntry<tspan x="3672.55px 3686.44px 3700.67px " y="358.287px 358.287px 358.287px ">, p</tspan>iece <tspan x="3834.43px " y="358.287px ">v</tspan>iew <tspan x="3948.69px " y="358.287px ">r</tspan>outing, <tspan x="4129.69px " y="358.287px ">a</tspan>nd</text>
        <g transform="matrix(50,0,0,50,3541.89,408.287)">
        </g>
        <g transform="matrix(50,0,0,50,3555.78,408.287)">
        </g>
        <text x="3127.73px" y="408.287px" style="font-family:'Helvetica';font-size:50px;">high-level <tspan x="3393.18px " y="408.287px ">u</tspan>ser <tspan x="3541.89px " y="408.287px ">ﬂ</tspan>ows <tspan x="3707.24px " y="408.287px ">f</tspan>or <tspan x="3817.03px " y="408.287px ">v</tspan>iewing <tspan x="4035.21px " y="408.287px ">c</tspan>ontent,</text>
        <text x="3127.73px" y="458.287px" style="font-family:'Helvetica';font-size:50px;">exploring <tspan x="3371.29px " y="458.287px ">j</tspan>ourneys, <tspan x="3614.82px " y="458.287px ">a</tspan>nd <tspan x="3738.9px " y="458.287px ">a</tspan>ccessing <tspan x="4001.89px " y="458.287px ">s</tspan>upporter</text>
        <text x="3127.73px" y="508.287px" style="font-family:'Helvetica';font-size:50px;">zones. <tspan x="3296.43px " y="508.287px ">D</tspan>esigned <tspan x="3529.07px " y="508.287px ">t</tspan>o <tspan x="3592.15px " y="508.287px ">s</tspan>upport <tspan x="3780.31px " y="508.287px ">f</tspan>rontend <tspan x="3985.16px " y="508.287px ">n</tspan>avigation</text>
        <g transform="matrix(50,0,0,50,3652.27,558.287)">
        </g>
        <text x="3127.73px" y="558.287px" style="font-family:'Helvetica';font-size:50px;">and developer handof<tspan x="3610.59px 3624.49px " y="558.287px 558.287px ">f.</tspan>.</text>
    </g>
</svg>
